HIERARCHY
ROOT Hips
{
  OFFSET 3.13124 94.3669 -3.18751
  CHANNELS  6 Xposition Yposition Zposition Zrotation Xrotation Yrotation
  JOINT LeftUpLeg
  {
    OFFSET 8.64259 1.95398 -2.38835
    CHANNELS 3 Zrotation Xrotation Yrotation
    JOINT LeftLeg
    {
      OFFSET 43.7702 0 0
      CHANNELS 3 Zrotation Xrotation Yrotation
      JOINT LeftFoot
      {
        OFFSET 40.6238 0 0
        CHANNELS 3 Zrotation Xrotation Yrotation
        JOINT LeftToeBase
        {
          OFFSET 12.7242 0 0
          CHANNELS 3 Zrotation Xrotation Yrotation
          End Site
          {
            OFFSET 0 0 0
          }
        }
      }
    }
  }
  JOINT RightUpLeg
  {
    OFFSET -8.2249 1.95398 -2.59336
    CHANNELS 3 Zrotation Xrotation Yrotation
    JOINT RightLeg
    {
      OFFSET 43.5653 0 0
      CHANNELS 3 Zrotation Xrotation Yrotation
      JOINT RightFoot
      {
        OFFSET 40.6238 0 0
        CHANNELS 3 Zrotation Xrotation Yrotation
        JOINT RightToeBase
        {
          OFFSET 12.7242 0 0
          CHANNELS 3 Zrotation Xrotation Yrotation
          End Site
          {
            OFFSET 0 0 0
          }
        }
      }
    }
  }
  JOINT Spine
  {
    OFFSET 0.165834 0.87714 6.61349
    CHANNELS 3 Zrotation Xrotation Yrotation
    JOINT Spine1
    {
      OFFSET 7.38962 1.71661e-005 0
      CHANNELS 3 Zrotation Xrotation Yrotation
      JOINT Spine2
      {
        OFFSET 11.9445 1.14441e-005 0
        CHANNELS 3 Zrotation Xrotation Yrotation
        JOINT Spine3
        {
          OFFSET 14.7254 4.19617e-005 0
          CHANNELS 3 Zrotation Xrotation Yrotation
          JOINT Spine4
          {
            OFFSET 10.9679 0 0
            CHANNELS 3 Zrotation Xrotation Yrotation
            JOINT RightShoulder
            {
              OFFSET 2.46616 -1.6653 3.69651
              CHANNELS 3 Zrotation Xrotation Yrotation
              JOINT RightArm
              {
                OFFSET 13.0012 0 0
                CHANNELS 3 Zrotation Xrotation Yrotation
                JOINT RightForeArm
                {
                  OFFSET 28.7848 1.52588e-005 0
                  CHANNELS 3 Zrotation Xrotation Yrotation
                  JOINT RightHand
                  {
                    OFFSET 26.5688 1.52588e-005 0
                    CHANNELS 3 Zrotation Xrotation Yrotation
                    End Site
                    {
                      OFFSET 0 0 0
                    }
                  }
                }
              }
            }
            JOINT LeftShoulder
            {
              OFFSET 2.38034 -1.29275 -3.75231
              CHANNELS 3 Zrotation Xrotation Yrotation
              JOINT LeftArm
              {
                OFFSET 16.3182 6.10352e-005 0
                CHANNELS 3 Zrotation Xrotation Yrotation
                JOINT LeftForeArm
                {
                  OFFSET 27.0901 0 0
                  CHANNELS 3 Zrotation Xrotation Yrotation
                  JOINT LeftHand
                  {
                    OFFSET 24.5451 1.52588e-005 0
                    CHANNELS 3 Zrotation Xrotation Yrotation
                    End Site
                    {
                      OFFSET 0 0 0
                    }
                  }
                }
              }
            }
            JOINT Neck
            {
              OFFSET 5.0226 -0.0266342 0
              CHANNELS 3 Zrotation Xrotation Yrotation
              JOINT Head
              {
                OFFSET 6.69363 2.86102e-005 0
                CHANNELS 3 Zrotation Xrotation Yrotation
                End Site
                {
                  OFFSET 0 0 0
                }
              }
            }
          }
        }
      }
    }
  }
}
MOTION
Frames:	6
Frame Time:	0.0333333
57.847 80.5155 51.2857 98.0633 -46.7804 93.9451 -176.316 41.2691 82.7264 -70.3748 6.48446 4.7407 75.5183 4.39323 2.09416 28.7808 5.42495e-006 -7.93072e-007 -179.052 19.9256 88.0465 -84.1998 9.87832 -0.650827 71.9311 4.20879 1.78091 28.7808 1.45645e-005 2.92178e-005 4.44024 7.42743 -87.2915 12.7003 8.66356 -2.69781 1.05485 8.53643 -3.07888 -21.7143 9.07068 0.0517179 -1.70159 9.07068 0.0517023 77.1367 -45.6958 -122.076 22.1918 18.0554 -42.9926 -0.503505 -2.60948 -71.9754 -5.37983 -0.32 -0.0162438 -70.6246 -26.9455 111.744 -5.43975 -32.4527 21.0746 17.5061 51.2492 -14.2984 -5.98318 0.138612 -11.5753 5.29059 -18.1222 10.6766 -6.53683 -19.0538 -18.4239 
58.1104 79.6768 51.6087 97.3479 -47.7195 93.7521 -175.547 42.4895 83.6245 -72.2171 5.62805 3.85636 77.6154 4.74506 2.21483 28.7808 5.42495e-006 -7.93072e-007 -179.07 20.8091 88.0578 -85.618 9.22339 -0.725819 72.9401 4.14943 1.68331 28.7808 1.45645e-005 2.92178e-005 4.23392 7.37988 -87.1396 12.7715 8.34928 -2.50658 1.12441 8.23086 -2.87379 -21.628 8.71377 0.137414 -1.61539 8.71378 0.137421 77.8298 -44.4178 -121.626 14.8656 16.1445 -41.7608 1.01577 -3.93796 -63.617 -5.37983 -0.32 -0.0162438 -71.0038 -27.5183 110.855 -5.61533 -32.6505 18.0194 17.9033 54.1574 -13.6375 -7.69202 0.359434 -14.0787 5.52514 -17.4447 10.1464 -6.34337 -18.3791 -17.2382 
58.3157 79.4295 51.8221 96.1509 -48.6539 92.9106 -174.693 43.4965 84.1892 -72.8858 4.9302 2.94248 78.0112 5.08561 2.34976 28.7808 5.42495e-006 -7.93072e-007 -178.888 21.3308 87.5967 -85.6154 8.70716 -0.76073 74.4758 4.49008 1.73317 28.7808 1.45645e-005 2.92178e-005 4.00441 7.34888 -86.9348 12.8086 8.04885 -2.25524 1.16011 7.94181 -2.60929 -21.577 8.35201 0.284851 -1.56436 8.352 0.284853 79.5865 -42.9136 -119.589 11.9861 16.9523 -42.1107 3.41039 -4.63252 -53.714 -5.37983 -0.32 -0.0162438 -71.4657 -28.8045 109.683 -5.47961 -33.118 13.4662 17.6925 53.515 -13.691 -9.42883 0.419366 -12.5963 6.34441 -16.5864 9.78865 -6.30212 -17.5857 -15.6364 
58.532 79.5594 52.0081 95.4156 -50.0675 92.6612 -173.97 43.6071 85.1473 -72.723 4.11589 2.0571 78.7136 5.44292 2.48147 28.7808 5.42495e-006 -7.93072e-007 -178.804 21.3068 87.3287 -84.6647 8.79085 -0.734386 76.034 4.86171 1.79024 28.7808 1.45645e-005 2.92178e-005 3.82307 7.33888 -86.8634 12.7939 7.75886 -2.05715 1.14404 7.66079 -2.39844 -21.5787 8.01613 0.384837 -1.56604 8.01616 0.384844 81.4319 -41.1722 -117.419 10.6159 19.2618 -42.3311 5.8533 -4.53991 -42.3074 -5.37983 -0.32 -0.0162438 -72.3329 -29.5767 107.839 -5.47699 -33.8229 8.56344 19.5162 57.7084 -14.2181 -10.7402 0.704375 -15.2188 6.95165 -15.6121 9.10843 -5.87924 -16.657 -13.5405 
58.8431 79.9066 52.14 94.7875 -52.0011 92.4779 -173.491 43.3257 86.0359 -72.1558 2.72299 1.21445 79.4001 5.44024 2.46706 28.7808 5.42495e-006 -7.93072e-007 -178.683 21.2109 86.9138 -83.2369 9.23131 -0.67308 77.5164 5.18708 1.82403 28.7808 1.45645e-005 2.92178e-005 3.64864 7.3252 -86.8477 12.7806 7.47401 -1.85936 1.12942 7.38492 -2.18816 -21.5796 7.68525 0.486235 -1.56698 7.68524 0.486222 83.0171 -39.825 -115.396 11.6859 23.628 -42.9709 6.06268 -3.22961 -30.3462 -5.37983 -0.32 -0.0162438 -73.7211 -29.6025 105.103 -5.02521 -34.382 4.36595 20.2041 60.531 -14.4639 -11.8954 0.795263 -14.9688 7.13441 -14.3987 7.8368 -4.98799 -15.394 -10.8093 
59.2139 80.4689 52.3074 94.0306 -54.7245 92.1842 -172.912 42.7482 87.0597 -71.143 1.6479 0.305619 80.0209 5.94253 2.65286 28.7808 5.42495e-006 -7.93072e-007 -178.468 20.7115 86.0817 -80.8209 8.5283 -0.65426 80.5626 6.51907 2.126 28.7808 1.45645e-005 2.92178e-005 3.49846 7.30817 -86.8838 12.7715 7.23221 -1.65787 1.11929 7.15221 -1.97609 -21.5785 7.3943 0.60443 -1.5658 7.39429 0.604416 84.0598 -39.5782 -113.746 12.0566 28.8922 -42.1435 3.34058 -1.62323 -20.9979 -5.37983 -0.32 -0.0162438 -74.5418 -29.8568 103.46 -4.3387 -35.524 -1.18979 23.2084 66.5 -16.267 -12.9598 1.00578 -16.1602 7.85678 -13.059 6.4174 -4.75823 -13.9101 -8.23032 
